<?xml version="1.0" encoding="utf-8"?>
<!-- Generator: Adobe Illustrator 26.1.0, SVG Export Plug-In . SVG Version: 6.00 Build 0)  -->
<svg version="1.1" id="Layer_1" xmlns="http://www.w3.org/2000/svg" xmlns:xlink="http://www.w3.org/1999/xlink" x="0px" y="0px"
	 viewBox="0 0 226.8 111.1" style="enable-background:new 0 0 226.8 111.1;" xml:space="preserve">
<style type="text/css">
	.st0{fill:#5A391B;}
	.st1{fill:#D89336;}
	.st2{fill:url(#SVGID_1_);}
	.st3{fill:url(#SVGID_00000169536189057917530750000012771120965027275152_);}
	.st4{fill:url(#SVGID_00000033349290607575106940000010532250568335351960_);}
	.st5{fill:url(#SVGID_00000116215863494058444930000003977203996953691801_);}
	.st6{fill:url(#SVGID_00000038414571900453046590000017262956734666719162_);}
	.st7{fill:url(#SVGID_00000006677806466281862660000007966659398899130761_);}
	.st8{fill:url(#SVGID_00000063617210590490687900000013182509994787575954_);}
	.st9{fill:url(#SVGID_00000005260868590191717330000001872938512995724705_);}
	.st10{fill:url(#SVGID_00000127012501998966759020000002254323221134245308_);}
	.st11{fill:url(#SVGID_00000039091452156136165250000002853691100813598395_);}
	.st12{fill:url(#SVGID_00000024717112280442280650000007292031623253865390_);}
	.st13{fill:url(#SVGID_00000169529127512955142450000006055569135188770180_);}
	.st14{fill:url(#SVGID_00000041984559024645364170000006629448880399438223_);}
	.st15{fill:url(#SVGID_00000010304669088672436290000004397527707518564265_);}
	.st16{fill:url(#SVGID_00000148628937198138173560000013344678899870439576_);}
	.st17{fill:url(#SVGID_00000171712669909049879390000010684133043362801841_);}
	.st18{fill:url(#SVGID_00000000922928843315908700000002594850690714323129_);}
	.st19{fill:url(#SVGID_00000078016794956288479220000017304050731622723971_);}
	.st20{fill:url(#SVGID_00000153681502172135261790000017699306755557967503_);}
</style>
<g>
	<g>
		<g>
			<path class="st0" d="M125.4,38.3V24.2c0-2.9,0.9-5.2,2.6-6.8c1.6-1.5,3.8-2.2,6.6-2.2c2.7,0,5,0.8,6.7,2.3
				c1.7,1.5,2.5,3.7,2.5,6.7V27h-7.2v-3.5c0-0.7-0.1-1.3-0.2-1.8c-0.3-0.7-0.9-1-1.8-1c-0.9,0-1.5,0.3-1.8,1
				c-0.2,0.5-0.3,1.2-0.3,1.8v15.4c0,0.9,0.2,1.7,0.5,2.2c0.3,0.4,0.8,0.7,1.6,0.7c0.8,0,1.4-0.4,1.8-1.1c0.2-0.5,0.3-1.1,0.3-1.7
				v-4.6h7.2v3.9c0,2.7-0.8,4.9-2.5,6.5c-1.7,1.6-3.9,2.4-6.7,2.4c-2.8,0-5-0.8-6.7-2.4C126.2,43.2,125.4,41,125.4,38.3z"/>
			<path class="st0" d="M147,38.3V24.2c0-2.9,0.9-5.2,2.6-6.8c1.6-1.5,3.8-2.2,6.6-2.2c2.7,0,5,0.8,6.7,2.3c1.7,1.5,2.5,3.7,2.5,6.7
				v14.1c0,2.7-0.8,4.9-2.5,6.5c-1.7,1.6-3.9,2.4-6.7,2.4c-2.8,0-5-0.8-6.7-2.4C147.8,43.2,147,41,147,38.3z M154.1,23.5v15.4
				c0,0.9,0.2,1.7,0.5,2.2c0.3,0.4,0.8,0.7,1.6,0.7c0.8,0,1.4-0.4,1.8-1.1c0.2-0.5,0.3-1.1,0.3-1.7V23.5c0-0.7-0.1-1.3-0.2-1.8
				c-0.3-0.7-0.9-1-1.8-1c-0.9,0-1.5,0.3-1.8,1C154.2,22.3,154.1,22.9,154.1,23.5z"/>
			<path class="st0" d="M168.6,38.3V24.2c0-2.9,0.9-5.2,2.6-6.8c1.6-1.5,3.8-2.2,6.6-2.2c2.7,0,5,0.8,6.7,2.3
				c1.7,1.5,2.5,3.7,2.5,6.7v14.1c0,2.7-0.8,4.9-2.5,6.5c-1.7,1.6-3.9,2.4-6.7,2.4c-2.8,0-5-0.8-6.7-2.4
				C169.4,43.2,168.6,41,168.6,38.3z M175.8,23.5v15.4c0,0.9,0.2,1.7,0.5,2.2c0.3,0.4,0.8,0.7,1.6,0.7c0.8,0,1.4-0.4,1.8-1.1
				c0.2-0.5,0.3-1.1,0.3-1.7V23.5c0-0.7-0.1-1.3-0.2-1.8c-0.3-0.7-0.9-1-1.8-1c-0.9,0-1.5,0.3-1.8,1
				C175.8,22.3,175.8,22.9,175.8,23.5z"/>
			<path class="st0" d="M190.2,46.8V15.7h7.7c4.1,0,6.9,0.6,8.5,1.7c1.7,1.3,2.6,3.9,2.6,7.8c0,1.1,0,1.8,0,2.2
				c-0.1,0.4-0.2,1-0.3,1.8c-0.2,0.8-0.5,1.6-1,2.4c-1.2,2-3.3,3-6.2,3h-4v12.3H190.2z M197.4,21.2v7.7h1.8c1,0,1.8-0.3,2.1-0.8
				c0.3-0.6,0.5-1.7,0.5-3.1c0-1.7-0.3-2.8-0.9-3.3c-0.4-0.3-1.3-0.5-2.7-0.5H197.4z"/>
			<path class="st0" d="M127.5,72.7V58.6c0-2.9,0.9-5.2,2.6-6.8c1.6-1.5,3.8-2.2,6.6-2.2c2.7,0,4.9,0.5,6.4,1.6
				c1.9,1.3,2.8,3.3,2.8,6v3.5h-6.8v-3.1c0-1.6-0.8-2.4-2.3-2.4c-0.8,0-1.4,0.3-1.8,1c-0.3,0.6-0.4,1.2-0.4,1.8v15.4
				c0,0.9,0.2,1.7,0.5,2.2c0.3,0.4,0.8,0.7,1.6,0.7c1.5,0,2.3-0.8,2.3-2.3v-4h-2.5v-5.8h9.5v17.1h-6.3v-2.5c-1.3,2-3.2,3-5.6,3
				c-2.3,0-4-0.9-5.2-2.7C128,77.5,127.5,75.4,127.5,72.7z"/>
			<path class="st0" d="M149.2,72.7V58.6c0-2.9,0.9-5.2,2.6-6.8c1.6-1.5,3.8-2.2,6.6-2.2c2.7,0,5,0.8,6.7,2.3
				c1.7,1.5,2.5,3.7,2.5,6.7v14.1c0,2.7-0.8,4.9-2.5,6.5c-1.7,1.6-3.9,2.5-6.7,2.5c-2.8,0-5-0.8-6.7-2.4
				C150,77.7,149.2,75.5,149.2,72.7z M156.3,58v15.4c0,0.9,0.2,1.7,0.5,2.2c0.3,0.4,0.8,0.7,1.6,0.7c0.8,0,1.4-0.4,1.8-1.1
				c0.2-0.5,0.3-1.1,0.3-1.7V58c0-0.7-0.1-1.3-0.2-1.8c-0.3-0.7-0.9-1-1.8-1c-0.9,0-1.5,0.3-1.8,1C156.4,56.7,156.3,57.3,156.3,58z"
				/>
			<path class="st0" d="M170.8,81.2V50.1h7.2v25.1h7.8v6H170.8z"/>
			<path class="st0" d="M188,81.2V50.1h10.7c2.9,0,4.9,0.8,6.2,2.4c1.1,1.4,1.6,3.3,1.6,6v14.8c0,2.6-0.8,4.6-2.4,6.1
				c-1.4,1.3-3.2,1.9-5.3,1.9H188z M195.2,55.4v20.5h1.1c2,0,3-0.9,3-2.6V58.1c0-1.8-1-2.6-3-2.6H195.2z"/>
		</g>
		<g>
			<path class="st1" d="M129.3,98.4v-2.8c0-2.6,0.2-4.9,0.6-6.7c0.2-0.9,0.5-1.7,0.8-2.5c0.3-0.8,0.7-1.5,1.1-2.1h2.8
				c0.8,1.3,1.5,2.8,1.9,4.7c0.2,0.9,0.4,1.9,0.5,3c0.1,1.1,0.2,2.3,0.2,3.7v2.8h-3.1v-2.3h-1.5v2.3H129.3z M132.4,93.4h1.5
				c0-1.3-0.1-2.4-0.2-3.6c-0.1-1.1-0.3-2-0.5-2.6c-0.2,0.7-0.4,1.6-0.5,2.6C132.5,90.7,132.5,91.9,132.4,93.4z"/>
			<path class="st1" d="M149.6,86.1v4.6c0,1.2,0.1,2.2,0.2,3c0.1,0.9,0.3,1.7,0.5,2.4c0.2-0.7,0.4-1.5,0.5-2.4
				c0.1-0.5,0.1-0.9,0.1-1.3c0-0.4,0-1,0.1-1.7v-4.6h2.9v5c0,1.6-0.2,3-0.5,4.2c-0.3,1.2-0.8,2.3-1.4,3.1H149
				c-0.2-0.4-0.3-0.8-0.4-1.1c-0.2-0.5-0.3-0.8-0.4-1.1c0,0.2-0.1,0.3-0.1,0.4s-0.1,0.2-0.1,0.3s-0.1,0.2-0.1,0.4
				c-0.1,0.4-0.3,0.7-0.4,1h-2.9c-0.6-0.8-1.1-1.9-1.4-3.1c-0.3-1.2-0.5-2.6-0.5-4.2v-5h2.9v4.6c0,1,0.1,2,0.2,3
				c0.1,0.9,0.3,1.7,0.5,2.4c0.2-0.7,0.4-1.4,0.5-2.4c0.1-1,0.2-2,0.2-3v-4.6H149.6z"/>
			<path class="st1" d="M159.5,89.8V89c0-1,0.3-1.8,0.8-2.3c0.6-0.5,1.4-0.8,2.5-0.8c1.2,0,2.1,0.3,2.6,0.8c0.5,0.5,0.8,1.4,0.8,2.7
				v9h-2.8v-0.7c-0.3,0.3-0.6,0.5-0.8,0.7c-0.4,0.1-0.7,0.2-1,0.2c-0.8,0-1.4-0.2-1.8-0.7c-0.4-0.5-0.6-1.2-0.6-2.2v-1.8
				c0-1,0.2-1.7,0.7-2.2c0.4-0.5,1.6-1.2,3.5-2v-0.4c0-0.5,0-0.8-0.1-0.9c-0.1-0.2-0.3-0.2-0.5-0.2c-0.2,0-0.4,0.1-0.5,0.2
				c-0.1,0.1-0.2,0.4-0.2,0.9v0.5H159.5z M163.4,92c-0.5,0.3-0.8,0.6-1,0.9c-0.2,0.3-0.3,0.8-0.3,1.5v0.2v0.5c0,0.6,0.1,0.9,0.2,1.1
				c0.1,0.1,0.3,0.2,0.5,0.2c0.2,0,0.4-0.1,0.5-0.2c0.1-0.1,0.1-0.5,0.1-1.1V92z"/>
			<path class="st1" d="M172.1,86.1h2.7v0.7c0.2-0.2,0.5-0.4,0.8-0.6c0.3-0.1,0.6-0.2,1.1-0.2c0.9,0,1.5,0.3,1.9,0.8
				c0.2,0.3,0.3,0.6,0.4,1.1c0.1,0.5,0.2,1.1,0.2,1.8V92h-2.9v-2.5c0-0.6,0-0.9-0.1-1c-0.1-0.2-0.3-0.2-0.5-0.2
				c-0.2,0-0.4,0.1-0.5,0.2c-0.1,0.1-0.1,0.5-0.1,1v9h-2.9V86.1z"/>
			<path class="st1" d="M184.2,90.2c0-1.8,0.2-2.9,0.6-3.5c0.4-0.5,1-0.8,2-0.8c0.4,0,0.7,0.1,1,0.2c0.3,0.1,0.5,0.3,0.7,0.5v-2.3
				h2.9v14.1h-2.7v-0.6c-0.3,0.3-0.5,0.5-0.9,0.6c-0.3,0.1-0.7,0.2-1.1,0.2c-0.8,0-1.5-0.3-1.9-0.9c-0.4-0.6-0.6-1.5-0.6-2.9V90.2z
				 M187.2,95.1c0,0.6,0,0.9,0.1,1.1c0.1,0.1,0.3,0.2,0.5,0.2c0.2,0,0.4-0.1,0.5-0.2c0.1-0.1,0.2-0.5,0.2-1.1v-5.6
				c0-0.6-0.1-0.9-0.2-1c-0.1-0.2-0.3-0.2-0.5-0.2c-0.2,0-0.4,0.1-0.5,0.2c-0.1,0.1-0.1,0.5-0.1,1V95.1z"/>
			<path class="st1" d="M204,90h-2.9v-1.1c0-0.2-0.1-0.3-0.2-0.5c-0.1-0.1-0.3-0.2-0.5-0.2c-0.2,0-0.4,0.1-0.5,0.2
				c-0.1,0.1-0.2,0.3-0.2,0.6c0,0.4,0.5,0.9,1.4,1.6c0.2,0.2,0.5,0.4,0.8,0.6c0.7,0.5,1.3,1.1,1.7,1.8c0.3,0.6,0.5,1.3,0.5,2.2
				c0,1.2-0.3,2.1-0.9,2.7c-0.5,0.6-1.4,0.8-2.7,0.9c-1.4,0-2.3-0.3-2.9-0.8c-0.6-0.6-0.8-1.5-0.8-2.9v-1.5h2.9v1.7
				c0,0.6,0,0.9,0.1,1.1c0.1,0.1,0.3,0.2,0.5,0.2c0.3,0,0.4-0.1,0.6-0.3c0.1-0.1,0.1-0.4,0.2-0.9c0-0.5-0.1-0.8-0.2-1.1
				c-0.1-0.2-0.4-0.5-0.9-0.9c-0.3-0.2-0.5-0.4-0.7-0.5c-1.7-1.3-2.5-2.5-2.5-3.6c0-1.1,0.3-1.9,0.9-2.4c0.6-0.5,1.5-0.8,2.7-0.8
				c1.3,0,2.2,0.3,2.7,0.8c0.6,0.5,0.8,1.3,0.8,2.5V90z"/>
		</g>
	</g>
	<g>
		<linearGradient id="SVGID_1_" gradientUnits="userSpaceOnUse" x1="44.2036" y1="33.0335" x2="131.7353" y2="88.3467">
			<stop  offset="5.618000e-03" style="stop-color:#FBC926"/>
			<stop  offset="0.2528" style="stop-color:#FFFBCC"/>
			<stop  offset="0.3045" style="stop-color:#F8F0BB"/>
			<stop  offset="0.4072" style="stop-color:#E7D28E"/>
			<stop  offset="0.55" style="stop-color:#CCA246"/>
			<stop  offset="0.5955" style="stop-color:#C3922E"/>
			<stop  offset="0.8708" style="stop-color:#EED688"/>
			<stop  offset="1" style="stop-color:#FFFBCC"/>
		</linearGradient>
		<path class="st2" d="M91.3,49.4C91.3,69.9,70,86.5,70,86.5S48.8,69.9,48.8,49.4S70,12.2,70,12.2S91.3,28.9,91.3,49.4z"/>
		<g>
			
				<linearGradient id="SVGID_00000096043496224834527190000017875624332096710292_" gradientUnits="userSpaceOnUse" x1="44.5133" y1="64.7487" x2="87.0674" y2="86.1327">
				<stop  offset="7.069050e-02" style="stop-color:#5A391B"/>
				<stop  offset="0.4976" style="stop-color:#C2842B"/>
				<stop  offset="0.5964" style="stop-color:#B27828"/>
				<stop  offset="0.7903" style="stop-color:#865922"/>
				<stop  offset="0.9665" style="stop-color:#5A391B"/>
			</linearGradient>
			<path style="fill:url(#SVGID_00000096043496224834527190000017875624332096710292_);" d="M72.3,72.3c-0.7-0.1-1.4-0.2-2.1-0.2
				c-0.8,0-1.5,0.1-2.2,0.3c-3.6,0.8-6.5,3.7-7.5,7.3c1,0.2,2,0.4,3,0.5c0.7-2.2,2.4-3.9,4.5-4.6c0.7-0.2,1.4-0.3,2.2-0.3
				c0.7,0,1.4,0.1,2,0.3c2.2,0.7,4,2.4,4.7,4.7c1-0.1,2-0.3,3-0.5C79,75.9,76,73.1,72.3,72.3"/>
			
				<linearGradient id="SVGID_00000042698910013882855530000016406795475051140506_" gradientUnits="userSpaceOnUse" x1="47.3008" y1="59.2016" x2="89.8549" y2="80.5855">
				<stop  offset="7.069050e-02" style="stop-color:#5A391B"/>
				<stop  offset="0.4976" style="stop-color:#C2842B"/>
				<stop  offset="0.5964" style="stop-color:#B27828"/>
				<stop  offset="0.7903" style="stop-color:#865922"/>
				<stop  offset="0.9665" style="stop-color:#5A391B"/>
			</linearGradient>
			<path style="fill:url(#SVGID_00000042698910013882855530000016406795475051140506_);" d="M91.4,71.5l-3,1.3
				c-0.5-1-1.1-1.9-1.7-2.8l2.8-2.8l-3.7-3.6l-2.5,2.7c-0.9-0.7-1.8-1.4-2.8-1.9l1.4-3.5l-4.9-1.8L76,62.6c-1-0.3-2.1-0.5-3.2-0.7
				l0.1-3.4h0h-0.1h-5.1h0h-0.1l0.1,3.4c-1.1,0.1-2.2,0.4-3.2,0.7l-1.1-3.3l-4.9,1.8l1.4,3.5c-1,0.6-1.9,1.2-2.8,1.9l-2.5-2.7
				l-3.7,3.6l2.8,2.8c-0.6,0.9-1.2,1.8-1.7,2.8l-3-1.3l-1.4,3.3c1.8,1,3.7,1.8,5.6,2.6c1.8-6.7,7.5-11.8,14.5-12.8
				c0.8-0.1,1.6-0.2,2.4-0.2c0.8,0,1.6,0.1,2.4,0.2c7,1,12.7,6.1,14.6,12.8c1.9-0.7,3.8-1.6,5.6-2.6L91.4,71.5z"/>
			<g>
				
					<linearGradient id="SVGID_00000144338774488547951140000003339990177906530441_" gradientUnits="userSpaceOnUse" x1="71.667" y1="66.7262" x2="78.8841" y2="71.698">
					<stop  offset="7.069050e-02" style="stop-color:#5A391B"/>
					<stop  offset="0.4976" style="stop-color:#C2842B"/>
					<stop  offset="0.5964" style="stop-color:#B27828"/>
					<stop  offset="0.7903" style="stop-color:#865922"/>
					<stop  offset="0.9665" style="stop-color:#5A391B"/>
				</linearGradient>
				<polygon style="fill:url(#SVGID_00000144338774488547951140000003339990177906530441_);" points="75,69.6 75,68.2 74.2,69.3 
									"/>
				
					<linearGradient id="SVGID_00000143596772310265009870000003405951364423650180_" gradientUnits="userSpaceOnUse" x1="45.7376" y1="62.3123" x2="88.2917" y2="83.6963">
					<stop  offset="7.069050e-02" style="stop-color:#5A391B"/>
					<stop  offset="0.4976" style="stop-color:#C2842B"/>
					<stop  offset="0.5964" style="stop-color:#B27828"/>
					<stop  offset="0.7903" style="stop-color:#865922"/>
					<stop  offset="0.9665" style="stop-color:#5A391B"/>
				</linearGradient>
				<path style="fill:url(#SVGID_00000143596772310265009870000003405951364423650180_);" d="M72.6,65.5c-0.8-0.1-1.6-0.2-2.4-0.2
					c-0.8,0-1.6,0.1-2.4,0.2c-6.6,1-12,5.9-13.8,12.2c1.8,0.7,3.7,1.2,5.6,1.6c1-4,4.2-7.1,8.3-8c0.7-0.2,1.5-0.2,2.3-0.2
					c0.7,0,1.4,0.1,2.1,0.2c4.1,0.8,7.4,4,8.4,8c1.9-0.4,3.8-1,5.6-1.6C84.6,71.3,79.2,66.4,72.6,65.5z M66.9,70.6l-1.2,0.4
					l-2.6-3.1l1.2-0.4l1.7,2.3L65.8,67l1.1-0.4L66.9,70.6z M71.6,69.7c-0.1,0.2-0.3,0.3-0.5,0.4c-0.2,0.1-0.5,0.2-0.8,0.2
					c-0.4,0-0.8,0-1-0.2c-0.3-0.1-0.5-0.3-0.7-0.6c-0.2-0.3-0.3-0.7-0.3-1.2c0-0.6,0.1-1.1,0.5-1.5c0.3-0.3,0.8-0.5,1.4-0.5
					c0.5,0,0.9,0.1,1.1,0.3c0.3,0.2,0.5,0.5,0.6,0.9l-1,0.2c0-0.1-0.1-0.2-0.1-0.3c-0.1-0.1-0.1-0.2-0.2-0.2c-0.1,0-0.2-0.1-0.3-0.1
					c-0.3,0-0.5,0.1-0.6,0.3c-0.1,0.2-0.2,0.4-0.1,0.8c0,0.4,0.1,0.7,0.2,0.9c0.1,0.2,0.3,0.2,0.5,0.2c0.2,0,0.4-0.1,0.5-0.2
					c0.1-0.1,0.2-0.3,0.2-0.6l1,0.3C71.9,69.2,71.8,69.5,71.6,69.7z M74.9,71.1l0-0.7L73.7,70l-0.4,0.5l-1.1-0.4l2.6-3.1l1.2,0.4
					l0.1,4.1L74.9,71.1z"/>
			</g>
		</g>
		<g>
			
				<linearGradient id="SVGID_00000005260725581289231790000011570655514734591620_" gradientUnits="userSpaceOnUse" x1="59.5958" y1="20.7869" x2="87.0742" y2="42.4916">
				<stop  offset="7.069050e-02" style="stop-color:#5A391B"/>
				<stop  offset="0.4976" style="stop-color:#C2842B"/>
				<stop  offset="0.5964" style="stop-color:#B27828"/>
				<stop  offset="0.7903" style="stop-color:#865922"/>
				<stop  offset="0.9665" style="stop-color:#5A391B"/>
			</linearGradient>
			<path style="fill:url(#SVGID_00000005260725581289231790000011570655514734591620_);" d="M70.1,34.3c-0.7-1.6-1.4-3.2-2-4.7
				c-0.2-0.5-0.5-1.1-0.6-1.6c-0.3-1.4,0.5-3,2.1-3.3c1.1-0.2,2.4,0.5,2.8,1.7c0.4,0.9,0.2,1.9-0.2,2.8c-0.7,1.6-1.3,3.3-1.9,4.9
				C70.3,34,70.2,34.1,70.1,34.3"/>
			
				<linearGradient id="SVGID_00000079462731466445626490000005376926227710302130_" gradientUnits="userSpaceOnUse" x1="60.1293" y1="20.1115" x2="87.6077" y2="41.8162">
				<stop  offset="7.069050e-02" style="stop-color:#5A391B"/>
				<stop  offset="0.4976" style="stop-color:#C2842B"/>
				<stop  offset="0.5964" style="stop-color:#B27828"/>
				<stop  offset="0.7903" style="stop-color:#865922"/>
				<stop  offset="0.9665" style="stop-color:#5A391B"/>
			</linearGradient>
			<path style="fill:url(#SVGID_00000079462731466445626490000005376926227710302130_);" d="M70.6,34.5c0.2-0.5,0.4-1,0.6-1.5
				c0.6-1.5,1.2-3,1.8-4.5c0.7-1.6,2.7-2.2,4.1-1.2c1,0.7,1.3,2.2,0.7,3.3c-0.5,0.9-1.2,1.3-2.1,1.7c-1.6,0.7-3.2,1.4-4.8,2.1
				C70.8,34.4,70.7,34.5,70.6,34.5"/>
			
				<linearGradient id="SVGID_00000001655372795998736560000012743692518927047321_" gradientUnits="userSpaceOnUse" x1="57.2865" y1="23.7105" x2="84.7649" y2="45.4152">
				<stop  offset="7.069050e-02" style="stop-color:#5A391B"/>
				<stop  offset="0.4976" style="stop-color:#C2842B"/>
				<stop  offset="0.5964" style="stop-color:#B27828"/>
				<stop  offset="0.7903" style="stop-color:#865922"/>
				<stop  offset="0.9665" style="stop-color:#5A391B"/>
			</linearGradient>
			<path style="fill:url(#SVGID_00000001655372795998736560000012743692518927047321_);" d="M69.5,34.4c-0.7-0.3-1.3-0.5-1.9-0.8
				c-1.3-0.6-2.7-1.1-4-1.7c-1.5-0.7-2.1-2.5-1.4-3.8c0.7-1.4,2.7-1.7,4-0.6c0.6,0.5,1,1.3,1.3,2c0.6,1.5,1.3,3.1,1.9,4.6
				C69.4,34.1,69.5,34.2,69.5,34.4"/>
			
				<linearGradient id="SVGID_00000083052652707735998230000007199237077855132846_" gradientUnits="userSpaceOnUse" x1="54.2945" y1="27.4983" x2="81.773" y2="49.2031">
				<stop  offset="7.069050e-02" style="stop-color:#5A391B"/>
				<stop  offset="0.4976" style="stop-color:#C2842B"/>
				<stop  offset="0.5964" style="stop-color:#B27828"/>
				<stop  offset="0.7903" style="stop-color:#865922"/>
				<stop  offset="0.9665" style="stop-color:#5A391B"/>
			</linearGradient>
			<path style="fill:url(#SVGID_00000083052652707735998230000007199237077855132846_);" d="M69.4,35c-0.8,0.3-1.6,0.7-2.3,1
				c-1.1,0.5-2.2,0.9-3.3,1.4c-1.2,0.4-2.3,0.4-3.3-0.5c-0.7-0.7-1-1.5-0.8-2.5c0.3-1,0.9-1.6,1.9-1.9c0.7-0.2,1.4-0.1,2,0.1
				c1,0.4,1.9,0.8,2.9,1.2C67.4,34.2,68.4,34.6,69.4,35"/>
			
				<linearGradient id="SVGID_00000088113549263976386370000004922739057169006724_" gradientUnits="userSpaceOnUse" x1="59.1524" y1="21.3482" x2="86.6309" y2="43.0529">
				<stop  offset="7.069050e-02" style="stop-color:#5A391B"/>
				<stop  offset="0.4976" style="stop-color:#C2842B"/>
				<stop  offset="0.5964" style="stop-color:#B27828"/>
				<stop  offset="0.7903" style="stop-color:#865922"/>
				<stop  offset="0.9665" style="stop-color:#5A391B"/>
			</linearGradient>
			<path style="fill:url(#SVGID_00000088113549263976386370000004922739057169006724_);" d="M70.7,35c1.2-0.5,2.3-1,3.5-1.5
				c0.7-0.3,1.5-0.6,2.2-0.9c1.1-0.5,2.1-0.4,3,0.3c1.6,1.2,1.2,3.6-0.6,4.3c-0.9,0.4-1.7,0.3-2.6,0c-1.8-0.7-3.5-1.4-5.3-2.1
				C70.9,35.1,70.9,35.1,70.7,35"/>
			
				<linearGradient id="SVGID_00000178884518926864823910000013407656366757957033_" gradientUnits="userSpaceOnUse" x1="52.4476" y1="29.8365" x2="79.926" y2="51.5413">
				<stop  offset="7.069050e-02" style="stop-color:#5A391B"/>
				<stop  offset="0.4976" style="stop-color:#C2842B"/>
				<stop  offset="0.5964" style="stop-color:#B27828"/>
				<stop  offset="0.7903" style="stop-color:#865922"/>
				<stop  offset="0.9665" style="stop-color:#5A391B"/>
			</linearGradient>
			<path style="fill:url(#SVGID_00000178884518926864823910000013407656366757957033_);" d="M70,45.3c-1.6-5.3-8.6-5.4-9.3-5.4
				l0.8,3.1c8.1-0.4,8.1,8.4,8.1,8.4v3.3H70h0h0.4v-3.3c0,0,0-8.8,8.1-8.4l0.8-3.1C78.7,39.9,71.6,40,70,45.3"/>
			
				<linearGradient id="SVGID_00000098943080668482628010000003106491742761129126_" gradientUnits="userSpaceOnUse" x1="51.6741" y1="30.8158" x2="79.1525" y2="52.5206">
				<stop  offset="7.069050e-02" style="stop-color:#5A391B"/>
				<stop  offset="0.4976" style="stop-color:#C2842B"/>
				<stop  offset="0.5964" style="stop-color:#B27828"/>
				<stop  offset="0.7903" style="stop-color:#865922"/>
				<stop  offset="0.9665" style="stop-color:#5A391B"/>
			</linearGradient>
			<path style="fill:url(#SVGID_00000098943080668482628010000003106491742761129126_);" d="M70.9,51.2v3.5h0.6
				c0-8.4,5.5-8.4,6.3-8.4l0.7-3C71,42.9,70.9,51.2,70.9,51.2"/>
			
				<linearGradient id="SVGID_00000072248849917108023750000008280123729829148567_" gradientUnits="userSpaceOnUse" x1="50.8728" y1="31.8302" x2="78.3512" y2="53.535">
				<stop  offset="7.069050e-02" style="stop-color:#5A391B"/>
				<stop  offset="0.4976" style="stop-color:#C2842B"/>
				<stop  offset="0.5964" style="stop-color:#B27828"/>
				<stop  offset="0.7903" style="stop-color:#865922"/>
				<stop  offset="0.9665" style="stop-color:#5A391B"/>
			</linearGradient>
			<path style="fill:url(#SVGID_00000072248849917108023750000008280123729829148567_);" d="M71.9,54.6h0.6c0-5.6,3.9-5.1,4.3-5
				l0.7-2.9C71.8,46.5,71.9,53.8,71.9,54.6"/>
			
				<linearGradient id="SVGID_00000178906866178323022560000013524242873026688387_" gradientUnits="userSpaceOnUse" x1="48.5975" y1="34.7108" x2="76.0759" y2="56.4155">
				<stop  offset="7.069050e-02" style="stop-color:#5A391B"/>
				<stop  offset="0.4976" style="stop-color:#C2842B"/>
				<stop  offset="0.5964" style="stop-color:#B27828"/>
				<stop  offset="0.7903" style="stop-color:#865922"/>
				<stop  offset="0.9665" style="stop-color:#5A391B"/>
			</linearGradient>
			<path style="fill:url(#SVGID_00000178906866178323022560000013524242873026688387_);" d="M61.6,43.3l0.7,3c0.8,0,6.3,0,6.3,8.4
				h0.6v-3.5C69.2,51.2,69.1,42.9,61.6,43.3"/>
			
				<linearGradient id="SVGID_00000031169450810295937600000005649018227364744354_" gradientUnits="userSpaceOnUse" x1="47.521" y1="36.0737" x2="74.9994" y2="57.7784">
				<stop  offset="7.069050e-02" style="stop-color:#5A391B"/>
				<stop  offset="0.4976" style="stop-color:#C2842B"/>
				<stop  offset="0.5964" style="stop-color:#B27828"/>
				<stop  offset="0.7903" style="stop-color:#865922"/>
				<stop  offset="0.9665" style="stop-color:#5A391B"/>
			</linearGradient>
			<path style="fill:url(#SVGID_00000031169450810295937600000005649018227364744354_);" d="M62.5,46.8l0.7,2.9
				c0.5-0.1,4.3-0.7,4.3,5h0.6C68.2,53.8,68.2,46.5,62.5,46.8"/>
		</g>
		
			<radialGradient id="SVGID_00000142175118226550074560000001005594320197055902_" cx="69.7822" cy="55.1934" r="63.867" gradientUnits="userSpaceOnUse">
			<stop  offset="0" style="stop-color:#FDEC94"/>
			<stop  offset="0.1479" style="stop-color:#E4C572"/>
			<stop  offset="0.3012" style="stop-color:#CFA556"/>
			<stop  offset="0.4601" style="stop-color:#BF8C40"/>
			<stop  offset="0.6251" style="stop-color:#B37A30"/>
			<stop  offset="0.7996" style="stop-color:#AC6F27"/>
			<stop  offset="1" style="stop-color:#AA6C24"/>
		</radialGradient>
		<path style="fill:url(#SVGID_00000142175118226550074560000001005594320197055902_);" d="M100.6,49.5c0-33.2-29.3-43.6-30.5-44v0
			c0,0,0,0,0,0c0,0,0,0,0,0v0c-1.3,0.4-30.5,10.8-30.5,44c0,36.9,29.3,40.6,30.5,40.8v0c0,0,0,0,0,0c0,0,0,0,0,0v0
			C71.3,90.1,100.6,86.4,100.6,49.5z M70,82.4c-0.7-0.2-19.7-6.7-19.7-33.4c0-24,19-31.5,19.7-31.7C70.8,17.6,89.8,25,89.8,49
			C89.8,75.7,70.8,82.2,70,82.4z"/>
		
			<radialGradient id="SVGID_00000032618780106478322430000001611557558363851920_" cx="69.7196" cy="6.0301" r="94.7087" gradientUnits="userSpaceOnUse">
			<stop  offset="0" style="stop-color:#FDEC94"/>
			<stop  offset="9.234827e-02" style="stop-color:#E4C572"/>
			<stop  offset="0.1881" style="stop-color:#CFA556"/>
			<stop  offset="0.2874" style="stop-color:#BF8C40"/>
			<stop  offset="0.3904" style="stop-color:#B37A30"/>
			<stop  offset="0.4994" style="stop-color:#AC6F27"/>
			<stop  offset="0.6246" style="stop-color:#AA6C24"/>
			<stop  offset="0.9659" style="stop-color:#5A391B"/>
		</radialGradient>
		<path style="fill:url(#SVGID_00000032618780106478322430000001611557558363851920_);" d="M103.9,15.5c-1.5,1.4-3.9,4-6.4,8.2l0,0
			l0,0c-0.2,0.3-0.4,0.6-0.6,0.9c0,0,0,0,0,0L96.1,26c0,0,3.5,5.3,5.7,15c0.2-1.4,1.2-3.9,1.9-5.6c1.8,4.3,2.8,9.1,2.8,14
			c0,20.2-16.3,36.6-36.5,36.8c-20.2-0.1-36.5-16.5-36.5-36.8c0-5,1-9.7,2.8-14c0.7,1.7,1.7,4.2,1.9,5.6c2.2-9.7,5.7-15,5.7-15
			l-0.8-1.4c0,0,0,0,0,0c-0.2-0.3-0.4-0.6-0.6-0.9l0,0l0,0c-2.5-4.2-4.9-6.8-6.4-8.2c-8.7,8.7-14,20.7-14,34
			c0,24,17.6,43.9,40.5,47.5c3.2-2.3,7.6-6,7.6-6s4.2,3.7,7.5,6c22.8-3.8,40.2-23.6,40.2-47.5C117.9,36.2,112.6,24.2,103.9,15.5z"/>
		
			<radialGradient id="SVGID_00000076584810005658498380000005540007812715495562_" cx="69.3956" cy="26.3537" r="97.1907" gradientUnits="userSpaceOnUse">
			<stop  offset="0" style="stop-color:#FDEC94"/>
			<stop  offset="0.1479" style="stop-color:#E4C572"/>
			<stop  offset="0.3012" style="stop-color:#CFA556"/>
			<stop  offset="0.4601" style="stop-color:#BF8C40"/>
			<stop  offset="0.6251" style="stop-color:#B37A30"/>
			<stop  offset="0.7996" style="stop-color:#AC6F27"/>
			<stop  offset="1" style="stop-color:#AA6C24"/>
		</radialGradient>
		<path style="fill:url(#SVGID_00000076584810005658498380000005540007812715495562_);" d="M94.4,25.6c0,19.1-3.5,31.9-7.8,40.4
			c-3.2,7.4-8.1,11.7-11.8,14C72,81.9,70,82.4,70,82.4c0,0,0,0,0,0h0h0c0,0-1.9-0.5-4.7-2.4c-3.6-2.3-8.6-6.6-11.8-14
			c-4.3-8.5-7.8-21.3-7.8-40.4c-3.7,6.2-6.2,14-6.2,23.8c0,36.9,29.3,40.6,30.5,40.8v0c0,0,0,0,0,0c0,0,0,0,0,0v0
			c1.3-0.1,30.5-3.9,30.5-40.8C100.6,39.6,98,31.8,94.4,25.6z"/>
		
			<radialGradient id="SVGID_00000165937528737531847210000015677089838063238287_" cx="69.996" cy="86.414" r="19.8179" gradientUnits="userSpaceOnUse">
			<stop  offset="0" style="stop-color:#FDEC94"/>
			<stop  offset="0.1479" style="stop-color:#E4C572"/>
			<stop  offset="0.3012" style="stop-color:#CFA556"/>
			<stop  offset="0.4601" style="stop-color:#BF8C40"/>
			<stop  offset="0.6251" style="stop-color:#B37A30"/>
			<stop  offset="0.7996" style="stop-color:#AC6F27"/>
			<stop  offset="1" style="stop-color:#AA6C24"/>
		</radialGradient>
		<path style="fill:url(#SVGID_00000165937528737531847210000015677089838063238287_);" d="M69.4,101.6c4.6,0,9.2-0.3,13.5-1
			c0,0-3.1-1.6-5.9-3.4s-6.8-5.3-6.8-5.3s-4.3,3.7-7.1,5.6c-2.7,1.8-5.9,3.4-5.9,3.4C61.1,101.4,65.2,101.6,69.4,101.6z"/>
	</g>
</g>
</svg>
